<mxfile host="app.diagrams.net" modified="2024-07-02T19:53:12.587Z" agent="Mozilla/5.0 (Windows NT 10.0; Win64; x64) AppleWebKit/537.36 (KHTML, like Gecko) Chrome/126.0.0.0 Safari/537.36" etag="PwsdXS2LKRpifBG_53D7" version="24.6.4" type="device">
  <diagram name="第 1 页" id="nJrsoBuCpC7NluPpUsMm">
    <mxGraphModel dx="1434" dy="738" grid="1" gridSize="10" guides="1" tooltips="1" connect="1" arrows="1" fold="1" page="1" pageScale="1" pageWidth="827" pageHeight="1169" math="0" shadow="0">
      <root>
        <mxCell id="0" />
        <mxCell id="1" parent="0" />
        <mxCell id="SC28a0FUbtJLOaRqLKhR-17" value="" style="group;fillColor=#dae8fc;strokeColor=#6c8ebf;movable=1;resizable=1;rotatable=1;deletable=1;editable=1;locked=0;connectable=1;" parent="1" vertex="1" connectable="0">
          <mxGeometry x="460" y="186.64" width="100" height="115.75" as="geometry" />
        </mxCell>
        <mxCell id="SC28a0FUbtJLOaRqLKhR-18" value="&lt;font size=&quot;1&quot; style=&quot;&quot;&gt;&lt;b style=&quot;font-size: 16px;&quot;&gt;Tree&lt;/b&gt;&lt;/font&gt;" style="shape=umlFrame;whiteSpace=wrap;html=1;pointerEvents=0;width=60;height=23;movable=1;resizable=1;rotatable=1;deletable=1;editable=1;locked=0;connectable=1;align=center;" parent="SC28a0FUbtJLOaRqLKhR-17" vertex="1">
          <mxGeometry width="100" height="114.79338842975208" as="geometry" />
        </mxCell>
        <mxCell id="SC28a0FUbtJLOaRqLKhR-2" value="Raw&lt;div style=&quot;font-size: 23px;&quot;&gt;&amp;nbsp;train&amp;nbsp;&lt;div style=&quot;font-size: 23px;&quot;&gt;dataset&lt;/div&gt;&lt;/div&gt;" style="rounded=0;whiteSpace=wrap;html=1;fillColor=#f5f5f5;fontColor=#333333;strokeColor=#666666;fontSize=23;fontStyle=1" parent="1" vertex="1">
          <mxGeometry x="60" y="186.64" width="100" height="115.75" as="geometry" />
        </mxCell>
        <mxCell id="SC28a0FUbtJLOaRqLKhR-41" value="" style="group;fillColor=#fff2cc;strokeColor=#d6b656;align=center;" parent="1" vertex="1" connectable="0">
          <mxGeometry x="660" y="186.64" width="101" height="115.5" as="geometry" />
        </mxCell>
        <mxCell id="SC28a0FUbtJLOaRqLKhR-43" value="&lt;b&gt;&lt;font style=&quot;font-size: 14px;&quot;&gt;If feature_1 &amp;gt; 6.0, then: Class 2&lt;/font&gt;&lt;/b&gt;" style="rounded=1;whiteSpace=wrap;html=1;fontSize=9;" parent="SC28a0FUbtJLOaRqLKhR-41" vertex="1">
          <mxGeometry x="7.21" y="30" width="86.57" height="51.81" as="geometry" />
        </mxCell>
        <mxCell id="SC28a0FUbtJLOaRqLKhR-44" value="&lt;font size=&quot;1&quot; style=&quot;&quot;&gt;&lt;b style=&quot;font-size: 16px;&quot;&gt;Rules&lt;/b&gt;&lt;/font&gt;" style="shape=umlFrame;whiteSpace=wrap;html=1;pointerEvents=0;width=60;height=23;align=center;" parent="SC28a0FUbtJLOaRqLKhR-41" vertex="1">
          <mxGeometry width="101" height="115.5" as="geometry" />
        </mxCell>
        <mxCell id="SC28a0FUbtJLOaRqLKhR-45" value="&lt;font style=&quot;font-size: 14px;&quot;&gt;&lt;b&gt;......&lt;/b&gt;&lt;/font&gt;" style="rounded=1;whiteSpace=wrap;html=1;" parent="SC28a0FUbtJLOaRqLKhR-41" vertex="1">
          <mxGeometry x="7.21" y="86.625" width="86.57" height="21.65625" as="geometry" />
        </mxCell>
        <mxCell id="w4haLVSN5tzpoW-iEdVo-7" value="&lt;span style=&quot;text-wrap: wrap; font-size: 14px;&quot;&gt;&lt;b style=&quot;font-size: 14px;&quot;&gt;TSFRESH&lt;/b&gt;&lt;/span&gt;" style="html=1;shadow=0;dashed=0;align=center;verticalAlign=middle;shape=mxgraph.arrows2.arrow;dy=0.6;dx=40;notch=0;fillColor=#f8cecc;strokeColor=#b85450;fontSize=14;" parent="1" vertex="1">
          <mxGeometry x="170" y="199.39" width="80" height="90" as="geometry" />
        </mxCell>
        <mxCell id="w4haLVSN5tzpoW-iEdVo-8" value="&lt;span style=&quot;text-wrap: wrap; font-size: 14px;&quot;&gt;&lt;b style=&quot;font-size: 14px;&quot;&gt;Classify&lt;/b&gt;&lt;/span&gt;" style="html=1;shadow=0;dashed=0;align=center;verticalAlign=middle;shape=mxgraph.arrows2.arrow;dy=0.6;dx=40;notch=0;fillColor=#f8cecc;strokeColor=#b85450;fontSize=14;" parent="1" vertex="1">
          <mxGeometry x="373.5" y="200.01" width="80" height="90" as="geometry" />
        </mxCell>
        <mxCell id="w4haLVSN5tzpoW-iEdVo-9" value="&lt;span style=&quot;text-wrap: wrap;&quot;&gt;&lt;b&gt;&lt;font style=&quot;font-size: 14px;&quot;&gt;Transform&lt;/font&gt;&lt;/b&gt;&lt;/span&gt;" style="html=1;shadow=0;dashed=0;align=center;verticalAlign=middle;shape=mxgraph.arrows2.arrow;dy=0.6;dx=40;notch=0;fillColor=#f8cecc;strokeColor=#b85450;" parent="1" vertex="1">
          <mxGeometry x="570" y="200" width="80" height="90" as="geometry" />
        </mxCell>
        <mxCell id="q9e3ULdEx6T9BmxEK4TT-2" value="&lt;font style=&quot;font-size: 21px;&quot;&gt;Feature table with top-k features&lt;/font&gt;" style="rounded=0;whiteSpace=wrap;html=1;fillColor=#f5f5f5;fontColor=#333333;strokeColor=#666666;fontSize=23;fontStyle=1" vertex="1" parent="1">
          <mxGeometry x="260" y="187.13" width="100" height="115.75" as="geometry" />
        </mxCell>
        <mxCell id="SC28a0FUbtJLOaRqLKhR-19" value="" style="group" parent="1" vertex="1" connectable="0">
          <mxGeometry x="474.5" y="221" width="75" height="100" as="geometry" />
        </mxCell>
        <mxCell id="SC28a0FUbtJLOaRqLKhR-20" value="" style="ellipse;whiteSpace=wrap;html=1;aspect=fixed;" parent="SC28a0FUbtJLOaRqLKhR-19" vertex="1">
          <mxGeometry x="32.142857142857146" width="6.01551423240268" height="6.01551423240268" as="geometry" />
        </mxCell>
        <mxCell id="SC28a0FUbtJLOaRqLKhR-21" value="" style="ellipse;whiteSpace=wrap;html=1;aspect=fixed;" parent="SC28a0FUbtJLOaRqLKhR-19" vertex="1">
          <mxGeometry x="10.714285714285714" y="22.22222222222222" width="6.01551423240268" height="6.01551423240268" as="geometry" />
        </mxCell>
        <mxCell id="SC28a0FUbtJLOaRqLKhR-22" value="" style="ellipse;whiteSpace=wrap;html=1;aspect=fixed;fillColor=#f0a30a;fontColor=#000000;strokeColor=#BD7000;" parent="SC28a0FUbtJLOaRqLKhR-19" vertex="1">
          <mxGeometry x="53.571428571428584" y="22.22222222222222" width="6.01551423240268" height="6.01551423240268" as="geometry" />
        </mxCell>
        <mxCell id="SC28a0FUbtJLOaRqLKhR-23" value="" style="ellipse;whiteSpace=wrap;html=1;aspect=fixed;fillColor=#f0a30a;fontColor=#000000;strokeColor=#BD7000;" parent="SC28a0FUbtJLOaRqLKhR-19" vertex="1">
          <mxGeometry x="21.428571428571427" y="44.44444444444444" width="6.01551423240268" height="6.01551423240268" as="geometry" />
        </mxCell>
        <mxCell id="SC28a0FUbtJLOaRqLKhR-24" value="" style="ellipse;whiteSpace=wrap;html=1;aspect=fixed;fillColor=#60a917;fontColor=#ffffff;strokeColor=#2D7600;" parent="SC28a0FUbtJLOaRqLKhR-19" vertex="1">
          <mxGeometry y="44.44444444444444" width="6.01551423240268" height="6.01551423240268" as="geometry" />
        </mxCell>
        <mxCell id="SC28a0FUbtJLOaRqLKhR-25" value="" style="ellipse;whiteSpace=wrap;html=1;aspect=fixed;fillColor=#6a00ff;fontColor=#ffffff;strokeColor=#3700CC;" parent="SC28a0FUbtJLOaRqLKhR-19" vertex="1">
          <mxGeometry x="42.857142857142854" y="44.44444444444444" width="6.01551423240268" height="6.01551423240268" as="geometry" />
        </mxCell>
        <mxCell id="SC28a0FUbtJLOaRqLKhR-26" value="" style="ellipse;whiteSpace=wrap;html=1;aspect=fixed;fillColor=#0050ef;fontColor=#ffffff;strokeColor=#001DBC;" parent="SC28a0FUbtJLOaRqLKhR-19" vertex="1">
          <mxGeometry x="32.142857142857146" y="66.66666666666666" width="6.01551423240268" height="6.01551423240268" as="geometry" />
        </mxCell>
        <mxCell id="SC28a0FUbtJLOaRqLKhR-27" value="" style="ellipse;whiteSpace=wrap;html=1;aspect=fixed;fillColor=#6a00ff;fontColor=#ffffff;strokeColor=#3700CC;" parent="SC28a0FUbtJLOaRqLKhR-19" vertex="1">
          <mxGeometry x="53.571428571428584" y="66.66666666666666" width="6.01551423240268" height="6.01551423240268" as="geometry" />
        </mxCell>
        <mxCell id="SC28a0FUbtJLOaRqLKhR-28" value="" style="endArrow=classic;html=1;rounded=0;exitX=0;exitY=1;exitDx=0;exitDy=0;entryX=1;entryY=0;entryDx=0;entryDy=0;" parent="SC28a0FUbtJLOaRqLKhR-19" source="SC28a0FUbtJLOaRqLKhR-20" target="SC28a0FUbtJLOaRqLKhR-21" edge="1">
          <mxGeometry width="50" height="50" relative="1" as="geometry">
            <mxPoint x="60.714285714285715" y="37.03703703703704" as="sourcePoint" />
            <mxPoint x="117.85714285714286" y="148.14814814814815" as="targetPoint" />
          </mxGeometry>
        </mxCell>
        <mxCell id="SC28a0FUbtJLOaRqLKhR-29" value="" style="endArrow=classic;html=1;rounded=0;entryX=0;entryY=0;entryDx=0;entryDy=0;exitX=1;exitY=1;exitDx=0;exitDy=0;" parent="SC28a0FUbtJLOaRqLKhR-19" source="SC28a0FUbtJLOaRqLKhR-20" target="SC28a0FUbtJLOaRqLKhR-22" edge="1">
          <mxGeometry width="50" height="50" relative="1" as="geometry">
            <mxPoint x="37.5" y="10.185185185185183" as="sourcePoint" />
            <mxPoint x="27.142857142857146" y="31.11111111111111" as="targetPoint" />
          </mxGeometry>
        </mxCell>
        <mxCell id="SC28a0FUbtJLOaRqLKhR-30" value="" style="endArrow=classic;html=1;rounded=0;entryX=0.5;entryY=0;entryDx=0;entryDy=0;exitX=0;exitY=1;exitDx=0;exitDy=0;" parent="SC28a0FUbtJLOaRqLKhR-19" source="SC28a0FUbtJLOaRqLKhR-22" target="SC28a0FUbtJLOaRqLKhR-25" edge="1">
          <mxGeometry width="50" height="50" relative="1" as="geometry">
            <mxPoint x="49.285714285714285" y="31.851851851851844" as="sourcePoint" />
            <mxPoint x="62.85714285714286" y="45.92592592592592" as="targetPoint" />
          </mxGeometry>
        </mxCell>
        <mxCell id="SC28a0FUbtJLOaRqLKhR-31" value="" style="endArrow=classic;html=1;rounded=0;entryX=0.5;entryY=0;entryDx=0;entryDy=0;exitX=1;exitY=1;exitDx=0;exitDy=0;" parent="SC28a0FUbtJLOaRqLKhR-19" source="SC28a0FUbtJLOaRqLKhR-21" target="SC28a0FUbtJLOaRqLKhR-23" edge="1">
          <mxGeometry width="50" height="50" relative="1" as="geometry">
            <mxPoint x="55.714285714285715" y="24.444444444444436" as="sourcePoint" />
            <mxPoint x="69.28571428571429" y="38.51851851851852" as="targetPoint" />
          </mxGeometry>
        </mxCell>
        <mxCell id="SC28a0FUbtJLOaRqLKhR-32" value="" style="endArrow=classic;html=1;rounded=0;entryX=0.5;entryY=0;entryDx=0;entryDy=0;exitX=0;exitY=1;exitDx=0;exitDy=0;" parent="SC28a0FUbtJLOaRqLKhR-19" source="SC28a0FUbtJLOaRqLKhR-21" target="SC28a0FUbtJLOaRqLKhR-24" edge="1">
          <mxGeometry width="50" height="50" relative="1" as="geometry">
            <mxPoint x="27.142857142857146" y="39.25925925925926" as="sourcePoint" />
            <mxPoint x="34.28571428571429" y="51.851851851851855" as="targetPoint" />
          </mxGeometry>
        </mxCell>
        <mxCell id="SC28a0FUbtJLOaRqLKhR-33" value="" style="endArrow=classic;html=1;rounded=0;entryX=0.5;entryY=0;entryDx=0;entryDy=0;exitX=0;exitY=1;exitDx=0;exitDy=0;" parent="SC28a0FUbtJLOaRqLKhR-19" source="SC28a0FUbtJLOaRqLKhR-25" target="SC28a0FUbtJLOaRqLKhR-26" edge="1">
          <mxGeometry width="50" height="50" relative="1" as="geometry">
            <mxPoint x="27.142857142857146" y="39.25925925925926" as="sourcePoint" />
            <mxPoint x="34.28571428571429" y="51.851851851851855" as="targetPoint" />
          </mxGeometry>
        </mxCell>
        <mxCell id="SC28a0FUbtJLOaRqLKhR-34" value="" style="endArrow=classic;html=1;rounded=0;entryX=0.5;entryY=0;entryDx=0;entryDy=0;exitX=1;exitY=1;exitDx=0;exitDy=0;" parent="SC28a0FUbtJLOaRqLKhR-19" source="SC28a0FUbtJLOaRqLKhR-25" target="SC28a0FUbtJLOaRqLKhR-27" edge="1">
          <mxGeometry width="50" height="50" relative="1" as="geometry">
            <mxPoint x="34.28571428571429" y="46.666666666666664" as="sourcePoint" />
            <mxPoint x="41.42857142857142" y="59.25925925925925" as="targetPoint" />
          </mxGeometry>
        </mxCell>
        <mxCell id="SC28a0FUbtJLOaRqLKhR-35" value="" style="ellipse;whiteSpace=wrap;html=1;aspect=fixed;fillColor=#f0a30a;fontColor=#000000;strokeColor=#BD7000;" parent="SC28a0FUbtJLOaRqLKhR-19" vertex="1">
          <mxGeometry x="64.28571428571429" y="44.44444444444444" width="6.01551423240268" height="6.01551423240268" as="geometry" />
        </mxCell>
        <mxCell id="SC28a0FUbtJLOaRqLKhR-36" value="" style="endArrow=classic;html=1;rounded=0;entryX=0.5;entryY=0;entryDx=0;entryDy=0;exitX=1;exitY=1;exitDx=0;exitDy=0;" parent="SC28a0FUbtJLOaRqLKhR-19" source="SC28a0FUbtJLOaRqLKhR-22" target="SC28a0FUbtJLOaRqLKhR-35" edge="1">
          <mxGeometry width="50" height="50" relative="1" as="geometry">
            <mxPoint x="62.142857142857146" y="39.25925925925926" as="sourcePoint" />
            <mxPoint x="55.714285714285715" y="51.851851851851855" as="targetPoint" />
          </mxGeometry>
        </mxCell>
      </root>
    </mxGraphModel>
  </diagram>
</mxfile>
